<mxfile host="app.diagrams.net" modified="2023-04-11T14:53:57.908Z" agent="5.0 (Macintosh; Intel Mac OS X 10_15_7) AppleWebKit/537.36 (KHTML, like Gecko) Chrome/112.0.0.0 Safari/537.36" etag="DpeTpcGuL5dykh4RlWe9" version="21.0.6" type="github">
  <diagram name="第 1 页" id="A1IVZwQOLrOYhd3ah2jp">
    <mxGraphModel dx="1045" dy="555" grid="1" gridSize="10" guides="1" tooltips="1" connect="1" arrows="1" fold="1" page="1" pageScale="1" pageWidth="827" pageHeight="1169" math="0" shadow="0">
      <root>
        <mxCell id="0" />
        <mxCell id="1" parent="0" />
        <mxCell id="kyekWxCSCRWAH6E1M5Um-11" value="" style="rounded=1;whiteSpace=wrap;html=1;" vertex="1" parent="1">
          <mxGeometry x="109" y="140" width="610" height="300" as="geometry" />
        </mxCell>
        <mxCell id="kyekWxCSCRWAH6E1M5Um-1" value="xuperchain&lt;br&gt;node2" style="ellipse;whiteSpace=wrap;html=1;" vertex="1" parent="1">
          <mxGeometry x="160" y="280" width="120" height="80" as="geometry" />
        </mxCell>
        <mxCell id="kyekWxCSCRWAH6E1M5Um-12" style="edgeStyle=orthogonalEdgeStyle;rounded=0;orthogonalLoop=1;jettySize=auto;html=1;entryX=0.5;entryY=0;entryDx=0;entryDy=0;" edge="1" parent="1" source="kyekWxCSCRWAH6E1M5Um-2" target="kyekWxCSCRWAH6E1M5Um-11">
          <mxGeometry relative="1" as="geometry" />
        </mxCell>
        <mxCell id="kyekWxCSCRWAH6E1M5Um-13" value="发压" style="edgeLabel;html=1;align=center;verticalAlign=middle;resizable=0;points=[];" vertex="1" connectable="0" parent="kyekWxCSCRWAH6E1M5Um-12">
          <mxGeometry y="1" relative="1" as="geometry">
            <mxPoint as="offset" />
          </mxGeometry>
        </mxCell>
        <mxCell id="kyekWxCSCRWAH6E1M5Um-2" value="xbench" style="rounded=1;whiteSpace=wrap;html=1;" vertex="1" parent="1">
          <mxGeometry x="354" y="20" width="120" height="50" as="geometry" />
        </mxCell>
        <mxCell id="kyekWxCSCRWAH6E1M5Um-3" value="xuperchain&lt;br&gt;node1" style="ellipse;whiteSpace=wrap;html=1;" vertex="1" parent="1">
          <mxGeometry x="320" y="160" width="120" height="80" as="geometry" />
        </mxCell>
        <mxCell id="kyekWxCSCRWAH6E1M5Um-4" value="xuperchain&lt;br&gt;node3" style="ellipse;whiteSpace=wrap;html=1;" vertex="1" parent="1">
          <mxGeometry x="520" y="280" width="120" height="80" as="geometry" />
        </mxCell>
        <mxCell id="kyekWxCSCRWAH6E1M5Um-5" value="" style="endArrow=classic;startArrow=classic;html=1;rounded=0;entryX=0;entryY=1;entryDx=0;entryDy=0;exitX=0.5;exitY=0;exitDx=0;exitDy=0;" edge="1" parent="1" source="kyekWxCSCRWAH6E1M5Um-1" target="kyekWxCSCRWAH6E1M5Um-3">
          <mxGeometry width="50" height="50" relative="1" as="geometry">
            <mxPoint x="220" y="260" as="sourcePoint" />
            <mxPoint x="270" y="210" as="targetPoint" />
          </mxGeometry>
        </mxCell>
        <mxCell id="kyekWxCSCRWAH6E1M5Um-7" value="P2P" style="edgeLabel;html=1;align=center;verticalAlign=middle;resizable=0;points=[];" vertex="1" connectable="0" parent="kyekWxCSCRWAH6E1M5Um-5">
          <mxGeometry x="0.0989" y="-1" relative="1" as="geometry">
            <mxPoint as="offset" />
          </mxGeometry>
        </mxCell>
        <mxCell id="kyekWxCSCRWAH6E1M5Um-6" value="" style="endArrow=classic;startArrow=classic;html=1;rounded=0;entryX=0;entryY=0;entryDx=0;entryDy=0;exitX=1;exitY=1;exitDx=0;exitDy=0;" edge="1" parent="1" source="kyekWxCSCRWAH6E1M5Um-3" target="kyekWxCSCRWAH6E1M5Um-4">
          <mxGeometry width="50" height="50" relative="1" as="geometry">
            <mxPoint x="390" y="310" as="sourcePoint" />
            <mxPoint x="440" y="260" as="targetPoint" />
          </mxGeometry>
        </mxCell>
        <mxCell id="kyekWxCSCRWAH6E1M5Um-8" value="P2p" style="edgeLabel;html=1;align=center;verticalAlign=middle;resizable=0;points=[];" vertex="1" connectable="0" parent="kyekWxCSCRWAH6E1M5Um-6">
          <mxGeometry x="-0.1897" y="4" relative="1" as="geometry">
            <mxPoint as="offset" />
          </mxGeometry>
        </mxCell>
        <mxCell id="kyekWxCSCRWAH6E1M5Um-9" value="P2P" style="endArrow=classic;startArrow=classic;html=1;rounded=0;entryX=0;entryY=0.5;entryDx=0;entryDy=0;" edge="1" parent="1" source="kyekWxCSCRWAH6E1M5Um-1" target="kyekWxCSCRWAH6E1M5Um-4">
          <mxGeometry width="50" height="50" relative="1" as="geometry">
            <mxPoint x="330" y="430" as="sourcePoint" />
            <mxPoint x="380" y="380" as="targetPoint" />
          </mxGeometry>
        </mxCell>
        <mxCell id="kyekWxCSCRWAH6E1M5Um-10" value="single(单节点矿工)&lt;br&gt;共识" style="ellipse;shape=cloud;whiteSpace=wrap;html=1;" vertex="1" parent="1">
          <mxGeometry x="540" y="140" width="120" height="80" as="geometry" />
        </mxCell>
      </root>
    </mxGraphModel>
  </diagram>
</mxfile>
